Simulation
nRows=32
nColumns=15
endheader
time  TH_x TH_y TH_z SC_y  SC_z  SC_x  AC_y  AC_z  AC_x  GH_y  GH_z  GH_yy  EL_x  PS_y
1.55  0.000000  0.000000  0.000000  -33.742044219592884  5.362779269242645  53.30839297798724  55.54248171809854  -15.652886392503953  -23.6340967737359  20.827282457794478  54.63370783328165  -19.885701862211835  18.282607159693498  0.000000
1.581  0.000000  0.000000  0.000000  -33.8271568342643  5.4571444235876765  53.43548090821276  55.61927518023833  -15.595705537157517  -23.42394388115499  20.740958943043776  55.10874456979584  -19.960180000474136  18.231694493996446  0.000000
1.612  0.000000  0.000000  0.000000  -33.89974749561582  5.528018837664276  53.528713080612015  55.68943821811643  -15.545686152252035  -23.246138603503148  20.684942128339888  55.495085693648676  -20.0480443511582  18.185987214302223  0.000000
1.643  0.000000  0.000000  0.000000  -33.95931190171018  5.575204813013883  53.589801729177786  55.752058322614815  -15.503310782518835  -23.10328384685845  20.65946593321744  55.790964562717406  -20.149993412432472  18.145433895776307  0.000000
1.674  0.000000  0.000000  0.000000  -34.005433876842254  5.59865279768867  53.61995370625641  55.807022204742864  -15.46968246157845  -22.99729714289775  20.66356472199522  55.99556289175436  -20.266421630591754  18.110246439906454  0.000000
1.705  0.000000  0.000000  0.000000  -34.037824278427614  5.598495572371917  53.61944497892463  55.85382358804268  -15.44457789855417  -22.92873373619819  20.696772653318884  56.1077510360287  -20.397322573516895  18.08049030384056  0.000000
1.736  0.000000  0.000000  0.000000  -34.05602437023357  5.574727270273299  53.588931056424926  55.89252151619344  -15.428216484947374  -22.898336414775297  20.757853294651895  56.12682354509114  -20.542303701538145  18.05636642199396  0.000000
1.767  0.000000  0.000000  0.000000  -34.06042932940785  5.5272361210610415  53.528311435864964  55.92334343634163  -15.420020982556961  -22.9052750236201  20.84614455190563  56.05211714870903  -20.700356089987412  18.038042252572506  0.000000
1.798  0.000000  0.000000  0.000000  -34.05181144201395  5.456381184151281  53.4366391384517  55.947335438611226  -15.42060491030145  -22.947789260742  20.960136302289524  55.88459187596049  -20.870987125463024  18.025273024671705  0.000000
1.829  0.000000  0.000000  0.000000  -34.03131230113657  5.362473154883585  53.313181988413156  55.965242051985506  -15.430408502907794  -23.023290302954624  21.098520560887927  55.62512515737101  -21.052727577424783  18.018162974576658  0.000000
1.8599999999999999  0.000000  0.000000  0.000000  -34.00017201703957  5.245665416931043  53.15672293989598  55.97857598846316  -15.449126781595597  -23.128908470217826  21.260099756561445  55.27471514815657  -21.244441062042764  18.016842855521777  0.000000
1.891  0.000000  0.000000  0.000000  -33.959784726755586  5.106481487822441  52.965860650989285  55.988561377609514  -15.477191832865792  -23.26037031769426  21.442849918306994  54.83500428817002  -21.443267656153076  18.02126489813632  0.000000
1.922  0.000000  0.000000  0.000000  -33.91177534687267  4.945804056772164  52.73906795827315  55.99702469021441  -15.515494802078996  -23.412992558549142  21.644438504684285  54.30803089416283  -21.647096113569276  18.03151248440612  0.000000
1.953  0.000000  0.000000  0.000000  -33.85805282989812  4.764544900611551  52.47481864626051  56.0050832706327  -15.564687377452783  -23.581579245233048  21.86309590698466  53.69601323071551  -21.853054644092264  18.047699550228163  0.000000
1.984  0.000000  0.000000  0.000000  -33.80047840909401  4.564021035973857  52.170718760928175  56.01453425826622  -15.62595327294122  -23.760135328461768  22.095906541447754  53.00222131113585  -22.058241310160987  18.069612954250015  0.000000
2.015  0.000000  0.000000  0.000000  -33.74124025161978  4.345526567759199  51.824637280296855  56.026597445101224  -15.70011129510722  -23.94202138467376  22.340065324075113  52.22967195473867  -22.258505072160773  18.09722311729182  0.000000
2.046  0.000000  0.000000  0.000000  -33.68207122091316  4.110456628484019  51.434681230149295  56.04209201040349  -15.787858625191518  -24.121852612481838  22.593236655582675  51.38190832531642  -22.45071198883368  18.130624598807525  0.000000
2.077  0.000000  0.000000  0.000000  -33.62402638634382  3.860368864125907  50.999737804340974  56.06037988013216  -15.889576168072981  -24.29472369311635  22.853163292251185  50.46220123766753  -22.63080925410391  18.169702170848957  0.000000
2.108  0.000000  0.000000  0.000000  -33.567291499559936  3.5970236584344915  50.51853121088216  56.080494113539686  -16.00501536045719  -24.456641855215043  23.11763617133275  49.4740360374994  -22.79564440905008  18.214251025453066  0.000000
2.139  0.000000  0.000000  0.000000  -33.51181076323176  3.322240493964352  49.9905591515833  56.10004964051655  -16.13304058612988  -24.604417496770882  23.385467888793794  48.42025603041792  -22.941843307609165  18.264205874133754  0.000000
2.17  0.000000  0.000000  0.000000  -33.45685322528763  3.0380076818890775  49.41582728607927  56.11641991977259  -16.27292567858573  -24.7361039041122  23.6552314477639  47.30421128546451  -23.066710773937167  18.319423780763955  0.000000
2.201  0.000000  0.000000  0.000000  -33.40160109957559  2.7463229477020783  48.79533883568178  56.12613686076531  -16.423482532816376  -24.85026325027626  23.925954737289068  46.12856988998716  -23.166959422438097  18.379742953283063  0.000000
2.232  0.000000  0.000000  0.000000  -33.34474110863106  2.449216664059938  48.13033999097227  56.12597869089743  -16.583487852867204  -24.94619206821963  24.19697155618361  44.896405612974334  -23.24057096162627  18.445055932998805  0.000000
2.263  0.000000  0.000000  0.000000  -33.28487048347759  2.1486140052831004  47.42287779598846  56.11230996174348  -16.751339742096505  -25.023438399095088  24.46767828658384  43.61050658029497  -23.28480419690549  18.51537453658376  0.000000
2.294  0.000000  0.000000  0.000000  -33.2206207857176  1.846520944223065  46.67558173177618  56.08230044152928  -16.925431555361516  -25.082041926689925  24.73751713833786  42.273490805593035  -23.29808312097945  18.590671709845605  0.000000
2.325  0.000000  0.000000  0.000000  -33.15067245675326  1.5447246870421496  45.891467707916064  56.033104094053826  -17.10364542639596  -25.122253470199237  25.00557430019465  40.88770848600892  -23.278195180678775  18.67078077584691  0.000000
2.356  0.000000  0.000000  0.000000  -33.07333293055981  1.2450519222064456  45.0738652822928  55.96277831450929  -17.283617429428606  -25.14446391441872  25.271167008290934  39.45505066860083  -23.223892585963434  18.755818888926516  0.000000
2.387  0.000000  0.000000  0.000000  -32.98660902632235  0.949165317002937  44.226008463835036  55.86932151474327  -17.462969917441892  -25.149190733543605  25.53339365943507  37.977842439120124  -23.1333567550499  18.845754329885423  0.000000
2.418  0.000000  0.000000  0.000000  -32.88852199388369  0.6580403640515133  43.35156193139549  55.7517585630202  -17.63877670385355  -25.137170381068625  25.791486084023717  36.45797339679974  -23.006099773305184  18.94057128785019  0.000000
2.449  0.000000  0.000000  0.000000  -32.77826478487546  0.37310399963851554  42.454776713705215  55.609382883409296  -17.80862740675471  -25.10980511062308  26.044331987466308  34.89784608205063  -22.841412530544297  19.040130444747284  0.000000
2.48  0.000000  0.000000  0.000000  -32.655605952931964  0.09533944130034878  41.54105802571543  55.443123595691034  -17.97022955157298  -25.068600574216006  26.290344765693323  33.299145714198666  -22.639459169426914  19.144300942778802  0.000000
2.511  0.000000  0.000000  0.000000  -32.52018027028962  -0.17490825067163743  40.616241862601726  55.25369404260118  -18.121920320422173  -25.016052698563428  26.527830581943846  31.664801491170266  -22.40029794185457  19.25231254400036  0.000000
